<svg width="48" height="48" viewBox="0 0 48 48" fill="none" xmlns="http://www.w3.org/2000/svg">
<rect width="48" height="48" rx="10" fill="#CEFFC6"/>
<path d="M24.325 35.125C22.3417 35.125 20.6167 34.7667 19.15 34.05C17.6833 33.3167 16.5583 32.2833 15.775 30.95C14.9917 29.6167 14.6 28.0667 14.6 26.3C14.6 23.85 15.0583 21.675 15.975 19.775C16.9083 17.875 18.1667 16.4083 19.75 15.375C21.3333 14.325 23.0917 13.8 25.025 13.8C26.825 13.8 28.1917 14.2667 29.125 15.2C30.0583 16.1167 30.525 17.3333 30.525 18.85C30.525 19.8667 30.3417 20.6833 29.975 21.3C29.625 21.9167 29.1167 22.225 28.45 22.225C27.9833 22.225 27.6167 22.1167 27.35 21.9C27.0833 21.6833 26.95 21.3667 26.95 20.95C26.95 20.8 26.9833 20.525 27.05 20.125C27.15 19.625 27.2 19.225 27.2 18.925C27.2 17.4083 26.3917 16.65 24.775 16.65C23.675 16.65 22.625 17.0083 21.625 17.725C20.625 18.4417 19.8167 19.5 19.2 20.9C18.5833 22.2833 18.275 23.9333 18.275 25.85C18.275 27.85 18.8333 29.4 19.95 30.5C21.0667 31.5833 22.7167 32.125 24.9 32.125C25.9833 32.125 27.075 31.9917 28.175 31.725C29.2917 31.4417 30.525 31.0167 31.875 30.45C32.125 30.35 32.3333 30.3 32.5 30.3C32.7667 30.3 32.9667 30.4 33.1 30.6C33.2333 30.8 33.3 31.0583 33.3 31.375C33.3 32.3917 32.75 33.1417 31.65 33.625C30.4667 34.1417 29.2333 34.525 27.95 34.775C26.6833 35.0083 25.475 35.125 24.325 35.125Z" fill="#68B85B"/>
</svg>
